<svg xmlns="http://www.w3.org/2000/svg" xmlns:xlink="http://www.w3.org/1999/xlink" width="364" height="364" viewBox="0 0 364 364">
  <defs>
    <clipPath id="clip-Web_1920_1">
      <rect width="364" height="364"/>
    </clipPath>
  </defs>
  <g id="Web_1920_1" data-name="Web 1920 – 1" clip-path="url(#clip-Web_1920_1)">
    <rect width="364" height="364" fill="none"/>
    <g id="popcorn-svgrepo-com" transform="translate(-0.438 -0.438)">
      <ellipse id="Ellipse_1" data-name="Ellipse 1" cx="182" cy="181.783" rx="182" ry="181.783" transform="translate(0.438 0.438)" fill="#fdc00f"/>
      <path id="Tracé_1" data-name="Tracé 1" d="M396.276,223.857c-.475-.558-79.532-79.689-80.39-80.254a7.177,7.177,0,0,0-6.159-3.394l-.12.014-.113-.014a9.817,9.817,0,0,0-6.155,2.444,5.231,5.231,0,0,0-1.6-1.346,5.1,5.1,0,0,0-3.609-2.678l-.763,0c-.182-.2-8.7-8.877-9.315-9.356a4.918,4.918,0,0,0-3.857-.869l-.5-.263c-.3-.642-7.254-7.809-7.87-8.287-1.985-1.536-4.473-1.033-6.757.04-.434-.587-11.687-12.008-12.8-12.483-3.776-1.613-7.506,2.332-9.706,5.021l-.069-.055c-.124-.073-7.9-8.246-8.753-8.753a4.688,4.688,0,0,0-3.076-.6c-.175-.365-6.918-7.29-7.213-7.626-2.977-3.4-8.848-.708-11.833.744-2.766-1.839-8.272-5.291-11.676-2.313-2.149,1.879-1.89,4.912-1.025,7.652-.558.248-1.084.492-1.529.711-2.766-1.839-8.272-5.291-11.676-2.313-1.587,1.39-1.832,3.411-1.518,5.477a28.533,28.533,0,0,0-3.78.04l-.6-.525a17.218,17.218,0,0,0-2.189-2.189c-2.058-2.427-4.871-4.78-7.9-3.7-4.306,1.529-3.966,8.067-3.667,11.417a25.911,25.911,0,0,0-4.532,3.747c-2.05-2.394-4.827-4.671-7.823-3.605-4.306,1.529-3.966,8.067-3.667,11.417a24.1,24.1,0,0,0-4.984,4.247c-2-2.189-4.59-4.076-7.37-3.091-4.306,1.529-3.966,8.067-3.667,11.417a23.768,23.768,0,0,0-5.053,4.342c-1.988-2.153-4.554-3.988-7.3-3.01-2.112.752-3.1,2.711-3.528,4.9a8.765,8.765,0,0,0-2.9-.562c-5.17,0-8.476,4.922-7.542,10.928h-.026L142.728,325.46l65.659,65.659h1.8l.048.274c1.43.029,2.831.106,4.255.106C310.26,391.5,388.741,317.689,396.276,223.857Z" transform="translate(-32.049 -27.061)" fill="#f29a00"/>
      <path id="Tracé_2" data-name="Tracé 2" d="M116.659,155.741H313.867c-.912-3.521-5.714-5.78-8.473-6.845-.43-3.251-1.368-9.6-5.79-10.264-3.532-.529-5.966,3-7.494,6.01a27.692,27.692,0,0,0-2.532-3.576c1.211-3.047,3.492-9.049-.048-11.786-3.576-2.766-8.819,1.007-11.468,3.01l-.292-.117-.42-.525c1.212-3.047,3.492-9.049-.048-11.786-3.576-2.766-8.819,1.007-11.468,3.01l-.912-.365a25.038,25.038,0,0,0-4.156-3.7c.4-3.255,1.095-9.636-3.017-11.392-4.16-1.773-8.279,3.2-10.337,5.805a25.738,25.738,0,0,0-6.155-.252c.678-3.28,1-7.535-2.036-9.341-3.886-2.31-8.629,2.076-11.015,4.382-.332-.091-.715-.193-1.109-.292l-.387-.744c1.773-2.759,5.167-8.21,2.222-11.574-2.977-3.4-8.848-.708-11.833.748-2.766-1.839-8.272-5.291-11.676-2.313-2.149,1.879-1.89,4.912-1.025,7.652-.558.248-1.084.492-1.529.711-2.766-1.839-8.272-5.291-11.676-2.313-1.587,1.39-1.832,3.411-1.518,5.477a31.71,31.71,0,0,0-4.466.081c-1.894-2.726-5.743-7.965-10-6.451-4.306,1.529-3.966,8.067-3.667,11.417a25.912,25.912,0,0,0-4.532,3.747c-2.05-2.394-4.827-4.671-7.823-3.605-4.306,1.529-3.966,8.067-3.667,11.417a24.017,24.017,0,0,0-4.984,4.251c-2-2.189-4.59-4.076-7.37-3.091-4.306,1.529-3.966,8.067-3.667,11.417a23.768,23.768,0,0,0-5.053,4.342c-1.993-2.153-4.554-3.988-7.3-3.01-4.306,1.529-3.966,8.067-3.667,11.417C121.049,148.925,116.71,152.1,116.659,155.741Z" transform="translate(-33.522 -26.724)" fill="#fff78a"/>
      <path id="Tracé_3" data-name="Tracé 3" d="M203.93,116.987a3.974,3.974,0,1,0,3.974,3.974A3.976,3.976,0,0,0,203.93,116.987Zm-17.416,7.947a3.974,3.974,0,1,0,3.974,3.974A3.976,3.976,0,0,0,186.514,124.935Zm-10.483,15.726A3.974,3.974,0,1,0,180,144.634,3.976,3.976,0,0,0,176.031,140.661Zm39.4-10.125a3.974,3.974,0,1,0,3.974,3.974A3.976,3.976,0,0,0,215.427,130.535Zm22.283,6.152a3.974,3.974,0,1,0,3.974,3.974A3.976,3.976,0,0,0,237.71,136.687ZM227.8,114.7a3.974,3.974,0,1,0,3.974,3.974A3.974,3.974,0,0,0,227.8,114.7Zm32.467,14.205a3.974,3.974,0,1,0,3.974,3.974A3.976,3.976,0,0,0,260.267,128.908Zm-14.61-5.579a3.974,3.974,0,1,0,3.974,3.974A3.976,3.976,0,0,0,245.657,123.329Zm-47.178,17.332a3.974,3.974,0,1,0,3.974,3.974A3.976,3.976,0,0,0,198.478,140.661Zm61.788.766a3.974,3.974,0,1,0,3.974,3.974A3.976,3.976,0,0,0,260.267,141.427Zm25.512-8.545a3.974,3.974,0,1,0,3.974,3.974A3.974,3.974,0,0,0,285.779,132.881ZM280.024,145.4A3.974,3.974,0,1,0,284,149.374,3.976,3.976,0,0,0,280.024,145.4Zm-56.2-3.974A3.974,3.974,0,1,0,227.8,145.4,3.976,3.976,0,0,0,223.826,141.427Z" transform="translate(-49.441 -33.068)" fill="#fbb03b"/>
      <path id="Tracé_4" data-name="Tracé 4" d="M317.019,170.6c1.091-6.141-2.266-11.216-7.52-11.216-5.167,0-10.067,4.922-11.077,10.928h-.051c.74-6.01-2.729-10.928-7.9-10.928s-9.91,4.922-10.724,10.928H279.7c.544-6.01-3.083-10.928-8.253-10.928s-9.75,4.922-10.37,10.928h-.051c.351-6.01-3.437-10.928-8.607-10.928s-9.592,4.922-10.016,10.928h-.051c.157-6.01-3.791-10.928-8.962-10.928s-9.432,4.922-9.662,10.928h-.036c-.04-6.01-4.145-10.928-9.311-10.928s-9.272,4.922-9.308,10.928h-.051c-.234-6.01-4.5-10.928-9.666-10.928s-9.115,4.922-8.954,10.928h-.051c-.427-6.01-4.853-10.928-10.02-10.928s-8.954,4.922-8.6,10.928h-.051c-.62-6.01-5.207-10.928-10.373-10.928s-8.793,4.922-8.246,10.928H149c-.817-6.01-5.561-10.928-10.728-10.928s-8.637,4.922-7.893,10.928h-.051c-1.011-6.01-5.915-10.928-11.081-10.928s-8.476,4.922-7.542,10.928h-.026l31.062,174.327H286.037L316.8,171.442Z" transform="translate(-32.055 -46.072)" fill="#fff"/>
      <path id="Tracé_5" data-name="Tracé 5" d="M130.334,170.309c-1.011-6.01-5.915-10.928-11.081-10.928s-8.476,4.922-7.542,10.928h-.026l31.062,174.327H155.8L130.375,170.2l0,.113h-.044Zm37.389,0c-.62-6.01-5.207-10.928-10.373-10.928s-8.8,4.922-8.25,10.928h-.026l19.769,174.327H181.9L167.774,170.2l0,.113h-.047Zm37.385,0c-.234-6.01-4.5-10.928-9.666-10.928s-9.115,4.922-8.958,10.928h-.026l8.473,174.327h13.055L205.162,170.2l-.011.113h-.043Z" transform="translate(-32.055 -46.072)" fill="#fc611f"/>
      <path id="Tracé_6" data-name="Tracé 6" d="M350.964,159.38c-5.167,0-10.067,4.922-11.077,10.928h-.051c.74-6.01-2.729-10.928-7.9-10.928s-9.91,4.922-10.724,10.928h-.051c.544-6.01-3.083-10.928-8.253-10.928s-9.75,4.922-10.37,10.928h-.051c.351-6.01-3.437-10.928-8.607-10.928s-9.592,4.922-10.016,10.928h-.051c.157-6.01-3.791-10.928-8.962-10.928s-9.432,4.922-9.662,10.928h-.036c-.04-6-4.138-10.917-9.3-10.928V344.632H327.5l30.759-173.192.222-.847C359.575,164.455,356.218,159.38,350.964,159.38Z" transform="translate(-73.519 -46.072)" fill="#d7eced"/>
      <path id="Tracé_7" data-name="Tracé 7" d="M286.639,170.309c.157-6.01-3.788-10.928-8.958-10.928s-9.432,4.922-9.666,10.928h-.026l-2.821,174.327h13.055L286.7,170.2l-.019.113h-.046Zm37.44,0h-.051c.547-6.01-3.079-10.928-8.25-10.928s-9.753,4.922-10.373,10.928h-.026L291.262,344.635h13.055L324.1,170.2Zm37.338,0c.938-6.01-2.372-10.928-7.542-10.928s-10.07,4.922-11.081,10.928h-.026l-25.41,174.327h13.055l31.08-174.44-.033.113h-.043Z" transform="translate(-76.197 -46.072)" fill="#e64500"/>
      <ellipse id="Ellipse_2" data-name="Ellipse 2" cx="63.127" cy="32.46" rx="63.127" ry="32.46" transform="translate(119.712 190.132)" fill="#fc611f"/>
      <path id="Tracé_8" data-name="Tracé 8" d="M255.852,267.167v64.922c34.864,0,63.127-14.533,63.127-32.46S290.716,267.167,255.852,267.167Z" transform="translate(-73.519 -77.045)" fill="#e64500"/>
      <ellipse id="Ellipse_3" data-name="Ellipse 3" cx="51.411" cy="22.111" rx="51.411" ry="22.111" transform="translate(130.921 200.484)" fill="#fff"/>
      <path id="Tracé_9" data-name="Tracé 9" d="M256.579,281.687v44.227c28.158-.12,50.9-9.969,50.9-22.111S284.736,281.807,256.579,281.687Z" transform="translate(-73.728 -81.214)" fill="#d7eced"/>
    </g>
    <g id="Groupe_1" data-name="Groupe 1">
      <path id="Tracé_10" data-name="Tracé 10" d="M0,0H327V78H0Z" transform="translate(20 274)" fill="#d55124"/>
      <path id="Tracé_11" data-name="Tracé 11" d="M39.727-40.752v-3.4h7.5v15.527h-7.5q-3.311-8.408-11.045-8.408a11.953,11.953,0,0,0-6.812,1.992A13.347,13.347,0,0,0,17.241-29.6a17.381,17.381,0,0,0-1.655,7.632,16.408,16.408,0,0,0,1.567,7.192,13.1,13.1,0,0,0,4.38,5.215,11.091,11.091,0,0,0,6.475,1.948,11.076,11.076,0,0,0,7.837-3.12,15.622,15.622,0,0,0,4.468-8.218l8.7,4.131Q44.092.527,27.188.527a27.5,27.5,0,0,1-12.7-2.783,19.78,19.78,0,0,1-8.364-7.91,23.735,23.735,0,0,1-2.93-11.982,22.753,22.753,0,0,1,3.018-11.66,21.516,21.516,0,0,1,8.335-8.13,24.166,24.166,0,0,1,11.909-2.944Q34.453-44.883,39.727-40.752ZM72.3-36.65V-7.5h6.8V0H54.138V-7.5h6.65V-36.65h-6.65v-7.5H79.1v7.5Zm46.492,0h-5.684v-7.5h19.717v7.5h-6.152V.293H116.89l-19.1-32.754V-7.5h5.537V0H83.989V-7.5h5.947V-36.65H83.989v-7.5h18.545l16.26,27.6Zm49.978,6.475V-36.65H155.091v10.137h11.045v7.441H155.091V-7.5h13.682v-6.533h8.467V0H138.3V-7.5h5.332V-36.65H138.3v-7.5h38.936v13.975ZM225.313-44.15h22.559v7.5h-5.713V-7.5h5.713V0H225.606V-7.5h5.332V-36.65h-1.025L216.231,0h-4.717L197.657-36.65h-1.025V-7.5h5.684V0H183.653V-7.5h5.771V-36.65h-5.771v-7.5H205.86l9.668,25.84Zm57.712,7.5L292.254-7.5h5.273V0H275.818V-7.5h5.654L279.363-15H267.908l-2.344,7.5h5.889V0H251.941V-7.5h5.449l8.584-29.15h-5.889v-7.5h28.887v7.5Zm-9.2,1.787-3.955,13.33h7.676Z" transform="translate(33 333)" fill="#fff"/>
    </g>
  </g>
</svg>
